<svg xmlns:xlink="http://www.w3.org/1999/xlink" xmlns="http://www.w3.org/2000/svg" viewBox="0 0 48 48" version="1.0"><defs><linearGradient id="a"><stop offset="0" stop-color="#555753"/><stop offset="1" stop-color="#fff"/></linearGradient><linearGradient id="c" y2="14.617" xlink:href="#a" gradientUnits="userSpaceOnUse" x2="20.254" gradientTransform="rotate(42.147 22.387 20.597)" y1="15.082" x1="29.576"/><linearGradient id="d" y2="14.617" xlink:href="#a" gradientUnits="userSpaceOnUse" x2="20.254" gradientTransform="rotate(42.147 -12.396 7.213)" y1="15.082" x1="29.576"/><linearGradient id="b" y2="24.949" gradientUnits="userSpaceOnUse" x2="15.709" y1="31.481" x1="22.241"><stop offset="0" stop-color="#424441"/><stop offset="1" stop-color="#757772"/></linearGradient><radialGradient id="e" gradientUnits="userSpaceOnUse" cy="45.409" cx="23.537" gradientTransform="matrix(1 0 0 .44 0 25.429)" r="13.496"><stop offset="0" stop-opacity=".265"/><stop offset="1" stop-opacity="0"/></radialGradient></defs><path d="M29.272 9.838L6.478 35.024l-.02.023c-.064.058-.11.121-.169.185-1.36 1.503-.934 4.128.973 5.854s4.575 1.9 5.935.398c.058-.065.102-.129.154-.198.024-.03.062-.06.084-.093l22.731-25.115-6.894-6.24z" stroke="#2e3436" stroke-width=".99" fill="url(#b)"/><path d="M31.418 7.404a7.828 3.67 0 11-15.655 0 7.828 3.67 0 1115.655 0z" transform="matrix(.44145 .39953 -.67103 .74143 27.605 -2.315)" stroke="#2e3436" stroke-width="1.296" fill="#eeeeec"/><path d="M31.128 21.633c-1.718 1.502-4.131 1.235-5.904-.37-1.773-1.604-2.301-4-1.125-5.696l5.18-5.723.023.021c-.978 1.535-.461 3.882 1.29 5.467 1.753 1.586 4.139 1.87 5.568.74l-5.032 5.561z" stroke="#2e3436" stroke-width=".99" fill="url(#c)"/><path d="M13.153 41.513c-1.718 1.501-4.13 1.235-5.904-.37s-2.301-4-1.125-5.696l5.18-5.723.023.021c-.978 1.535-.461 3.882 1.29 5.467 1.753 1.586 4.139 1.87 5.568.74l-5.032 5.561z" stroke="#2e3436" stroke-width=".99" fill="url(#d)"/><path d="M37.033 45.409a13.496 5.938 0 11-26.992 0 13.496 5.938 0 1126.992 0z" transform="matrix(1.2967 0 0 .6995 -9.02 9.736)" fill="url(#e)"/><path d="M44.247 28.686c-.62.522-6.226-4.08-7.034-4.024s-5.71 5.404-6.396 4.976c-.687-.429 1.958-7.182 1.654-7.933-.304-.751-6.904-3.76-6.71-4.546.197-.787 7.437-.357 8.057-.879.62-.521 1.443-7.728 2.251-7.785.809-.057 2.637 6.962 3.325 7.39.688.43 7.795-1.016 8.1-.265.303.751-5.807 4.66-6.002 5.446-.195.787 3.376 7.1 2.755 7.62z" stroke="#c4a000" stroke-miterlimit="5" stroke-width=".9902029999999999" fill="#fce94f"/><path d="M44.493 33.003c-.215.36-3.732-.95-4.117-.786s-1.884 3.604-2.292 3.51c-.409-.094-.25-3.843-.525-4.159-.275-.316-4.01-.678-4.047-1.095-.036-.418 3.578-1.426 3.793-1.785.216-.36-.593-4.023-.208-4.187.386-.164 2.461 2.962 2.87 3.056.408.094 3.642-1.808 3.917-1.492.275.317-2.057 3.256-2.02 3.674.037.417 2.845 2.905 2.63 3.264z" stroke="#c4a000" stroke-miterlimit="5" stroke-width=".9902966400000001" fill="#fce94f"/><path d="M37.498 39.431c-.484.43-5.057-3.118-5.7-3.054s-4.435 4.437-4.992 4.11c-.559-.327 1.402-5.772 1.143-6.365-.259-.592-5.59-2.846-5.452-3.478.14-.632 5.924-.449 6.407-.879.483-.43.98-6.196 1.624-6.26.643-.063 2.257 5.495 2.815 5.822.558.327 6.196-.983 6.455-.39.259.592-4.529 3.845-4.667 4.476-.138.632 2.85 5.59 2.367 6.018z" stroke="#c4a000" stroke-miterlimit="5" stroke-width=".99030564" fill="#fce94f"/></svg>