<svg xmlns="http://www.w3.org/2000/svg" viewBox="0 0 22 22"><g transform="translate(-361.99 -696.94)"><rect transform="rotate(45)" ry="2.301" height="15.166" width="15.166" y="229.26" x="756.75" stroke-linejoin="round" color="#000" stroke="#cf5e01" stroke-linecap="round" stroke-width="2.454" fill="#fff"/><path d="M375.701 708.047c1.023-.695 1.145-2.345.79-3.272-.653-1.785-2.835-2.59-6.092-1.704-1.377.396-1.54 2.263-.914 2.89.014.014.055.027.123.014.45-.218 1.731-.832 2.126-.9 1.5-.245 2.14.873 1.704 1.609-.831 1.404-2.276.777-2.085 3.38.968.655 2.794.205 2.835-.34.082-1.132.682-1.091 1.513-1.677m-4.375 3.544c.177.832.174 1.164.69 1.354.545.201 1.317.222 1.9-.127.46-.276.494-1.108.013-1.69-.228-.276-2.849-.832-2.604.463" fill="#cf5e01"/></g></svg>